<svg data-v-528fb24a="" viewBox="0 0 36 36" fill="none" xmlns="http://www.w3.org/2000/svg" width="256" height="256" id="avatar"><title data-v-528fb24a="">Simple Avatar</title><desc data-v-528fb24a="">CREATED BY XUAN TANG, MORE INFO AT TXSTC55.GITHUB.IO</desc><rect data-v-528fb24a="" width="36" height="36" fill="#C8E0F4"></rect><mask data-v-528fb24a="" id="mask__foreground" maskUnits="userSpaceOnUse" x="0" y="0" width="100" height="100"><!----><path data-v-528fb24a="" stroke-width="9.89242065482124" stroke-linecap="round" stroke-linejoin="round" stroke="white" fill="white" d="M 18,7.75128869404 32,32 4,32 z" transform="translate(0.3599254926975801 -5.391530409290841) rotate(-19.467701361156713 18 18)"></path></mask><mask data-v-528fb24a="" id="mask__background" maskUnits="userSpaceOnUse" x="0" y="0" width="100" height="100"><rect data-v-528fb24a="" id="test" x="0" y="0" width="36" height="36" fill="white"></rect><!----><path data-v-528fb24a="" stroke-width="9.89242065482124" stroke-linecap="round" stroke-linejoin="round" stroke="black" fill="black" d="M 18,7.75128869404 32,32 4,32 z" transform="translate(0.3599254926975801 -5.391530409290841) rotate(-19.467701361156713 18 18)"></path></mask><rect data-v-528fb24a="" x="0" y="0" width="36" height="36" fill="#95f9c3" mask="url(#mask__foreground)"></rect><g data-v-528fb24a="" mask="url(#mask__foreground)"><g data-v-528fb24a="" transform="translate(-3.6438543611049337 3.8730141271674725) rotate(-8.46342871771093 25.659853024142226 27.19652692009928)"><g data-v-528fb24a="" transform=""><!----><path data-v-528fb24a="" d="M13.469991073543635,19.731467246871148 a0.6070716962389014, 0.7319612461699296 0 0,0 10.075836387106945, -0.9971132248833915" fill="hsl(207, 44.46666666666667%, 100%)"></path></g><rect data-v-528fb24a="" x="7.281874458245831" y="11.983105521676547" width="3.8953966604783226" height="2.1370277449217663" rx="1" stroke="none" fill="hsl(207, 44.46666666666667%, 100%)"></rect><rect data-v-528fb24a="" x="24.822728881275847" y="11.983105521676547" width="3.8953966604783226" height="2.1370277449217663" rx="1" stroke="none" fill="hsl(207, 44.46666666666667%, 100%)"></rect></g></g><g data-v-528fb24a="" mask="url(#mask__background)"><g data-v-528fb24a="" transform="translate(-3.6438543611049337 3.8730141271674725) rotate(-8.46342871771093 25.659853024142226 27.19652692009928)"><g data-v-528fb24a="" transform=""><!----><path data-v-528fb24a="" d="M13.469991073543635,19.731467246871148 a0.6070716962389014, 0.7319612461699296 0 0,0 10.075836387106945, -0.9971132248833915" fill="hsl(148, 59.53333333333333%, 100%)"></path></g><rect data-v-528fb24a="" x="7.281874458245831" y="11.983105521676547" width="3.8953966604783226" height="2.1370277449217663" rx="1" stroke="none" fill="hsl(148, 59.53333333333333%, 100%)"></rect><rect data-v-528fb24a="" x="24.822728881275847" y="11.983105521676547" width="3.8953966604783226" height="2.1370277449217663" rx="1" stroke="none" fill="hsl(148, 59.53333333333333%, 100%)"></rect></g></g></svg>